<?xml version="1.0" encoding="utf-8"?>
<!-- Generator: Adobe Illustrator 24.3.0, SVG Export Plug-In . SVG Version: 6.00 Build 0)  -->
<svg fill="white" version="1.1" id="Layer_1" xmlns="http://www.w3.org/2000/svg" xmlns:xlink="http://www.w3.org/1999/xlink" x="0px" y="0px"
	 viewBox="600 400 1060 600" style="enable-background:new 0 0 1920 1080;" xml:space="preserve">
<style type="text/css">
	.st0{clip-path:url(#SVGID_2_);}
</style>
<g>
	<defs>
		<rect id="SVGID_1_" x="721.71" y="492.06" width="476.94" height="96.38"/>
	</defs>
	<clipPath id="SVGID_2_">
		<use xlink:href="#SVGID_1_"  style="overflow:visible;"/>
	</clipPath>
	<path  class="st0" d="M942.76,566.84h-18.79c1.5,4.62,3.81,8.54,6.93,11.77c3.12,3.22,6.95,5.67,11.48,7.33
		c4.54,1.66,10.13,2.5,16.79,2.5c12.48,0,21.82-3.66,28.02-10.98c4.62-5.41,6.93-13.86,6.93-25.34v-28.88
		c-5.66-1.39-11.4-2.44-17.09-2.76c0.65,2.05,0.99,4.29,0.99,6.73c0,5.74-1.72,10.38-5.15,13.92c-3.43,3.54-7.79,5.31-13.08,5.31
		c-5.41,0-9.9-1.81-13.48-5.43c-2.61-2.64-4.26-5.83-4.96-9.56c-2.71,1.84-5.4,3.8-8.12,5.81c-2.15,1.58-4.33,3-6.54,4.3
		c1.57,3.86,3.82,7.35,6.77,10.44c6.28,6.57,13.98,9.86,23.09,9.86c4.16,0,7.89-0.66,11.17-1.97c3.29-1.31,6.43-3.46,9.42-6.46
		c0,5.49-0.57,9.36-1.72,11.61c-1.15,2.25-3.11,4.08-5.9,5.49c-2.79,1.41-6.47,2.12-11.05,2.12c-3.58,0-6.68-0.49-9.3-1.47
		C946.56,570.2,944.42,568.75,942.76,566.84 M994.12,516.3v-22.36h-16.98v7.49c-3.49-3.29-6.98-5.65-10.45-7.08
		c-3.47-1.44-7.17-2.15-11.08-2.15c-8.36,0-15.56,2.96-21.6,8.86c-0.96,0.94-1.85,1.94-2.67,2.97c0.58-0.09,1.16-0.18,1.76-0.24
		c16.12-1.76,33.14,4.25,48.3,8.98C985.71,514.11,989.94,515.29,994.12,516.3"/>
	<path class="st0" d="M841.7,541.48c1.6,4.41,4.05,8.38,7.36,11.91c6.4,6.8,13.98,10.21,22.75,10.21c3.91,0,7.53-0.7,10.88-2.09
		c3.34-1.39,6.68-3.67,10.01-6.83v7.18h17.04v-12.98c-13.35,3.8-27.54,3.61-42.26,0.26C858.98,547.19,850.38,544.3,841.7,541.48
		 M909.74,512.67v-18.73H892.7v7.49c-3.04-3.08-6.34-5.39-9.91-6.93c-3.57-1.54-7.4-2.31-11.47-2.31c-8.85,0-16.38,3.35-22.57,10.05
		c-6.19,6.7-9.29,15.29-9.29,25.78c0,1.9,0.11,3.74,0.34,5.52c5.98,0.97,11.85,1.38,17.61,1.18c-0.64-2.11-0.97-4.4-0.97-6.89
		c0-5.83,1.74-10.6,5.23-14.32c3.48-3.72,7.86-5.59,13.12-5.59c5.39,0,9.85,1.83,13.37,5.49c2.75,2.86,4.41,6.41,5.02,10.64
		c1.87-1.15,3.73-2.36,5.56-3.7C902.43,517.64,906.04,515.01,909.74,512.67"/>
	<path class="st0" d="M809.19,533.35v28.5h17.16v-25.02C820.66,535.28,814.94,534.03,809.19,533.35 M765.88,539.22v22.63h17.16
		v-26.97C777.3,536.16,771.61,537.81,765.88,539.22 M722.31,539.5v22.35h17.04v-19.9C733.62,541.51,727.97,540.52,722.31,539.5
		 M826.36,530.55v-8.52c0-8.16-0.8-14.04-2.41-17.66c-1.6-3.62-4.24-6.55-7.9-8.8c-3.66-2.25-7.91-3.37-12.74-3.37
		c-4.66,0-8.96,1.04-12.9,3.12c-3.93,2.08-7.26,5.12-9.96,9.11c-2.08-3.99-4.83-7.03-8.24-9.11c-3.41-2.08-7.24-3.12-11.49-3.12
		c-4.21,0-8.09,0.79-11.65,2.37c-3.56,1.58-6.8,3.97-9.71,7.18v-7.8h-17.04v30.31c6.05-1.02,12.01-2.66,17.98-4.23
		c0.22-1.03,0.48-1.95,0.78-2.74c1.15-3.04,2.88-5.4,5.19-7.08c2.32-1.69,4.89-2.53,7.73-2.53c2.54,0,4.71,0.67,6.51,2
		c1.79,1.33,3.14,3.36,4.03,6.09c0.02,0.04,0.03,0.1,0.04,0.14c6.63-0.09,13.24,0.79,19.81,2.2c0.11-0.36,0.22-0.71,0.35-1.03
		c1.12-2.93,2.84-5.23,5.15-6.9c2.31-1.66,4.92-2.5,7.83-2.5c3.83,0,6.7,1.36,8.61,4.09c1.73,2.46,2.67,6.96,2.84,13.46
		C814.93,527.1,820.66,528.97,826.36,530.55"/>
	<path class="st0" d="M1098.1,529.36v32.49h17.16V522.7C1109.49,524.68,1103.85,527.12,1098.1,529.36 M1054.79,536.97v24.88h17.16
		v-25.64C1066.21,536.95,1060.5,537.18,1054.79,536.97 M1011.22,528.19v33.65h17.04v-28.74c-4.07-0.99-8.19-2.14-12.37-3.44
		C1014.36,529.18,1012.8,528.69,1011.22,528.19 M1112.24,503.09c-1.63-3.04-4.05-5.55-7.28-7.53c-3.66-2.25-7.91-3.37-12.74-3.37
		c-4.66,0-8.96,1.04-12.9,3.12c-3.93,2.08-7.26,5.12-9.96,9.11c-2.08-3.99-4.83-7.03-8.24-9.11c-3.42-2.08-7.25-3.12-11.49-3.12
		c-4.21,0-8.09,0.79-11.65,2.37c-3.56,1.58-6.8,3.97-9.71,7.18v-7.8h-17.04v25.44c6.01,0.69,11.99,0.94,17.98,0.66
		c0.22-1.04,0.48-1.96,0.78-2.76c1.15-3.04,2.88-5.4,5.19-7.08c2.32-1.68,4.89-2.53,7.73-2.53c2.54,0,4.71,0.67,6.51,2
		c1.79,1.33,3.14,3.36,4.04,6.08c0.02,0.06,0.04,0.13,0.05,0.19c2.93-0.86,5.88-1.84,8.86-2.99c11.49-4.4,22.51-9.8,34.94-10.92
		C1102.26,501.59,1107.28,502.13,1112.24,503.09"/>
	<path class="st0" d="M1129.19,519.23c-0.54,2.77-0.82,5.69-0.82,8.79c0,10.11,3.2,18.57,9.6,25.37c6.4,6.8,13.99,10.21,22.76,10.21
		c3.91,0,7.53-0.7,10.88-2.09c3.34-1.39,6.68-3.67,10.01-6.83v7.18h17.04V532.7c-5.52-0.98-11.01-2.24-16.34-3.59
		c-0.25,5.41-1.98,9.85-5.24,13.29c-3.52,3.72-7.96,5.59-13.31,5.59c-5.18,0-9.55-1.89-13.09-5.68c-3.55-3.79-5.32-8.61-5.32-14.48
		c0-2.88,0.43-5.5,1.28-7.86c-4.93-0.95-9.92-1.48-14.85-1.04C1130.91,519,1130.05,519.11,1129.19,519.23 M1198.65,516.17v-22.23
		h-17.04v7.49c-3.03-3.08-6.34-5.39-9.91-6.93c-3.57-1.54-7.4-2.31-11.47-2.31c-8.85,0-16.38,3.35-22.57,10.05
		c-1.73,1.88-3.21,3.9-4.46,6.08c5.65,1.54,11.67,3.2,17.87,4.71c3.4-3.39,7.6-5.1,12.63-5.1c5.39,0,9.85,1.83,13.37,5.49
		c1.22,1.27,2.22,2.69,3.02,4.23C1186.48,517.92,1192.74,517.54,1198.65,516.17"/>
	<path class="st0" d="M841.1,541.35c1.6,4.41,4.05,8.38,7.36,11.91c6.4,6.8,13.99,10.21,22.76,10.21c3.91,0,7.53-0.7,10.88-2.09
		c3.34-1.39,6.68-3.67,10.01-6.83v7.18h17.04v-12.98c-13.35,3.8-27.54,3.61-42.26,0.26C858.38,547.06,849.78,544.17,841.1,541.35
		 M909.14,512.53v-18.73H892.1v7.49c-3.03-3.08-6.34-5.39-9.91-6.93c-3.57-1.54-7.4-2.31-11.47-2.31c-8.85,0-16.38,3.35-22.57,10.05
		c-6.19,6.7-9.29,15.29-9.29,25.78c0,1.9,0.11,3.74,0.34,5.52c5.98,0.97,11.85,1.38,17.61,1.18c-0.64-2.11-0.97-4.4-0.97-6.89
		c0-5.83,1.74-10.6,5.22-14.32c3.48-3.72,7.86-5.59,13.12-5.59c5.39,0,9.85,1.83,13.37,5.49c2.75,2.86,4.41,6.41,5.02,10.64
		c1.87-1.15,3.73-2.36,5.56-3.7C901.83,517.51,905.44,514.88,909.14,512.53"/>
	<path class="st0" d="M808.59,533.22v28.5h17.16v-25.02C820.06,535.15,814.34,533.9,808.59,533.22 M765.28,539.09v22.63h17.16
		v-26.97C776.7,536.03,771,537.68,765.28,539.09 M721.71,539.36v22.35h17.04v-19.9C733.02,541.37,727.37,540.39,721.71,539.36
		 M825.75,530.41v-8.52c0-8.15-0.8-14.04-2.41-17.66c-1.6-3.62-4.24-6.55-7.9-8.8c-3.66-2.25-7.91-3.37-12.74-3.37
		c-4.66,0-8.96,1.04-12.9,3.12c-3.93,2.08-7.26,5.12-9.96,9.11c-2.08-3.99-4.83-7.03-8.24-9.11c-3.42-2.08-7.25-3.12-11.49-3.12
		c-4.21,0-8.09,0.79-11.65,2.37c-3.56,1.58-6.8,3.97-9.71,7.18v-7.8h-17.04v30.31c6.05-1.02,12.01-2.66,17.98-4.23
		c0.22-1.03,0.48-1.95,0.78-2.74c1.15-3.04,2.88-5.4,5.19-7.08c2.32-1.68,4.89-2.53,7.73-2.53c2.55,0,4.71,0.67,6.51,2
		c1.79,1.33,3.14,3.36,4.04,6.09c0.01,0.04,0.03,0.09,0.04,0.14c6.63-0.09,13.24,0.79,19.81,2.2c0.11-0.36,0.22-0.71,0.34-1.03
		c1.12-2.93,2.84-5.23,5.15-6.9c2.31-1.66,4.92-2.5,7.83-2.5c3.83,0,6.7,1.36,8.61,4.09c1.73,2.46,2.67,6.96,2.84,13.46
		C814.33,526.96,820.06,528.84,825.75,530.41"/>
	<path class="st0" d="M1097.5,529.22v32.49h17.16v-39.14C1108.89,524.55,1103.24,526.98,1097.5,529.22 M1054.19,536.84v24.88h17.16
		v-25.64C1065.6,536.81,1059.9,537.05,1054.19,536.84 M1010.62,528.06v33.65h17.04v-28.74c-4.07-0.99-8.19-2.14-12.37-3.44
		C1013.76,529.05,1012.2,528.55,1010.62,528.06 M1111.64,502.96c-1.63-3.04-4.05-5.55-7.28-7.53c-3.67-2.25-7.91-3.37-12.74-3.37
		c-4.66,0-8.96,1.04-12.9,3.12c-3.94,2.08-7.26,5.12-9.96,9.11c-2.08-3.99-4.83-7.03-8.24-9.11c-3.41-2.08-7.25-3.12-11.49-3.12
		c-4.21,0-8.09,0.79-11.65,2.37c-3.56,1.58-6.8,3.97-9.71,7.18v-7.8h-17.04v25.44c6.01,0.69,11.99,0.94,17.98,0.66
		c0.22-1.04,0.48-1.96,0.78-2.76c1.15-3.04,2.88-5.4,5.19-7.08c2.31-1.68,4.89-2.53,7.73-2.53c2.54,0,4.71,0.67,6.51,2
		c1.79,1.33,3.14,3.36,4.03,6.08c0.02,0.06,0.04,0.13,0.05,0.19c2.93-0.86,5.88-1.84,8.86-2.99c11.49-4.4,22.51-9.8,34.93-10.92
		C1101.66,501.45,1106.68,502,1111.64,502.96"/>
	<path class="st0" d="M1128.59,519.09c-0.54,2.77-0.82,5.69-0.82,8.79c0,10.11,3.2,18.57,9.6,25.37c6.4,6.8,13.99,10.2,22.76,10.2
		c3.91,0,7.53-0.7,10.88-2.09c3.34-1.39,6.68-3.67,10.01-6.83v7.18h17.04v-29.15c-5.52-0.98-11.01-2.24-16.34-3.59
		c-0.25,5.41-1.98,9.85-5.24,13.3c-3.52,3.72-7.96,5.59-13.31,5.59c-5.18,0-9.55-1.89-13.09-5.68c-3.55-3.79-5.32-8.61-5.32-14.48
		c0-2.88,0.43-5.5,1.28-7.86c-4.93-0.95-9.91-1.48-14.85-1.04C1130.31,518.87,1129.45,518.98,1128.59,519.09 M1198.05,516.03v-22.23
		h-17.04v7.49c-3.04-3.08-6.34-5.39-9.91-6.93c-3.57-1.54-7.4-2.31-11.47-2.31c-8.85,0-16.38,3.35-22.57,10.05
		c-1.73,1.88-3.21,3.9-4.46,6.08c5.65,1.54,11.67,3.2,17.87,4.71c3.4-3.39,7.6-5.1,12.63-5.1c5.39,0,9.85,1.83,13.37,5.49
		c1.22,1.27,2.22,2.69,3.02,4.23C1185.88,517.79,1192.13,517.4,1198.05,516.03"/>
</g>
</svg>
